HIERARCHY
ROOT hip
{
  OFFSET 0 0 0
  CHANNELS 6 Xposition Yposition Zposition Zrotation Yrotation Xrotation
  JOINT abdomen
  {
    OFFSET 0 20.6881 -0.73152
    CHANNELS 3 Zrotation Xrotation Yrotation
    JOINT chest
    {
      OFFSET 0 11.7043 -0.48768
      CHANNELS 3 Zrotation Xrotation Yrotation
      JOINT neck
      {
        OFFSET 0 22.1894 -2.19456
        CHANNELS 3 Zrotation Xrotation Yrotation
        JOINT head
        {
          OFFSET -0.24384 7.07133 1.2192
          CHANNELS 3 Zrotation Xrotation Yrotation
          JOINT leftEye
          {
            OFFSET 4.14528 8.04674 8.04672
            CHANNELS 3 Zrotation Xrotation Yrotation
            End Site
            {
              OFFSET 1 0 0
            }
          }
          JOINT rightEye
          {
            OFFSET -3.6576 8.04674 8.04672
            CHANNELS 3 Zrotation Xrotation Yrotation
            End Site
            {
              OFFSET 1 0 0
            }
          }
        }
      }
      JOINT rCollar
      {
        OFFSET -2.68224 19.2634 -4.8768
        CHANNELS 3 Zrotation Xrotation Yrotation
        JOINT rShldr
        {
          OFFSET -8.77824 -1.95073 1.46304
          CHANNELS 3 Zrotation Xrotation Yrotation
          JOINT rForeArm
          {
            OFFSET -28.1742 -1.7115 0.48768
            CHANNELS 3 Zrotation Xrotation Yrotation
            JOINT rHand
            {
              OFFSET -22.5879 0.773209 7.07136
              CHANNELS 3 Zrotation Xrotation Yrotation
              JOINT rThumb1
              {
                OFFSET -1.2192 -0.487915 3.41376
                CHANNELS 3 Zrotation Xrotation Yrotation
                JOINT rThumb2
                {
                  OFFSET -3.37035 -0.52449 3.41376
                  CHANNELS 3 Zrotation Xrotation Yrotation
                  End Site
                  {
                    OFFSET -1.78271 -1.18214 1.43049
                  }
                }
              }
              JOINT rIndex1
              {
                OFFSET -7.75947 0.938293 5.60832
                CHANNELS 3 Zrotation Xrotation Yrotation
                JOINT rIndex2
                {
                  OFFSET -2.54057 -0.884171 1.56538
                  CHANNELS 3 Zrotation Xrotation Yrotation
                  End Site
                  {
                    OFFSET -1.62519 -0.234802 1.16502
                  }
                }
              }
              JOINT rMid1
              {
                OFFSET -8.24714 1.18213 3.41376
                CHANNELS 3 Zrotation Xrotation Yrotation
                JOINT rMid2
                {
                  OFFSET -3.10165 -0.590103 1.0647
                  CHANNELS 3 Zrotation Xrotation Yrotation
                  End Site
                  {
                    OFFSET -2.48547 -0.328903 0.83742
                  }
                }
              }
              JOINT rRing1
              {
                OFFSET -8.82822 0.546677 1.51678
                CHANNELS 3 Zrotation Xrotation Yrotation
                JOINT rRing2
                {
                  OFFSET -2.60934 -0.819778 -0.0198488
                  CHANNELS 3 Zrotation Xrotation Yrotation
                  End Site
                  {
                    OFFSET -2.33842 -0.294052 0.168128
                  }
                }
              }
              JOINT rPinky1
              {
                OFFSET -8.27202 -0.0477905 -0.4584
                CHANNELS 3 Zrotation Xrotation Yrotation
                JOINT rPinky2
                {
                  OFFSET -1.82734 -0.647385 -0.700984
                  CHANNELS 3 Zrotation Xrotation Yrotation
                  End Site
                  {
                    OFFSET -1.69225 -0.51767 -0.607171
                  }
                }
              }
            }
          }
        }
      }
      JOINT lCollar
      {
        OFFSET 2.68224 19.2634 -4.8768
        CHANNELS 3 Zrotation Xrotation Yrotation
        JOINT lShldr
        {
          OFFSET 8.77824 -1.95073 1.46304
          CHANNELS 3 Zrotation Xrotation Yrotation
          JOINT lForeArm
          {
            OFFSET 28.1742 -1.7115 0.48768
            CHANNELS 3 Zrotation Xrotation Yrotation
            JOINT lHand
            {
              OFFSET 22.5879 0.773209 7.07136
              CHANNELS 3 Zrotation Xrotation Yrotation
              JOINT lThumb1
              {
                OFFSET 1.2192 -0.487915 3.41376
                CHANNELS 3 Zrotation Xrotation Yrotation
                JOINT lThumb2
                {
                  OFFSET 3.37035 -0.52449 3.41376
                  CHANNELS 3 Zrotation Xrotation Yrotation
                  End Site
                  {
                    OFFSET 1.78271 -1.18214 1.43049
                  }
                }
              }
              JOINT lIndex1
              {
                OFFSET 7.75947 0.938293 5.60832
                CHANNELS 3 Zrotation Xrotation Yrotation
                JOINT lIndex2
                {
                  OFFSET 2.54057 -0.884171 1.56538
                  CHANNELS 3 Zrotation Xrotation Yrotation
                  End Site
                  {
                    OFFSET 1.62519 -0.234802 1.16502
                  }
                }
              }
              JOINT lMid1
              {
                OFFSET 8.24714 1.18213 3.41376
                CHANNELS 3 Zrotation Xrotation Yrotation
                JOINT lMid2
                {
                  OFFSET 3.10165 -0.590103 1.0647
                  CHANNELS 3 Zrotation Xrotation Yrotation
                  End Site
                  {
                    OFFSET 2.48547 -0.328903 0.83742
                  }
                }
              }
              JOINT lRing1
              {
                OFFSET 8.82822 0.546677 1.51678
                CHANNELS 3 Zrotation Xrotation Yrotation
                JOINT lRing2
                {
                  OFFSET 2.60934 -0.819778 -0.0198488
                  CHANNELS 3 Zrotation Xrotation Yrotation
                  End Site
                  {
                    OFFSET 2.33842 -0.294052 0.168128
                  }
                }
              }
              JOINT lPinky1
              {
                OFFSET 8.27202 -0.0477905 -0.4584
                CHANNELS 3 Zrotation Xrotation Yrotation
                JOINT lPinky2
                {
                  OFFSET 1.82734 -0.647385 -0.700984
                  CHANNELS 3 Zrotation Xrotation Yrotation
                  End Site
                  {
                    OFFSET 1.69225 -0.51767 -0.607171
                  }
                }
              }
            }
          }
        }
      }
    }
  }
  JOINT rButtock
  {
    OFFSET -8.77824 4.35084 1.2192
    CHANNELS 3 Zrotation Xrotation Yrotation
    JOINT rThigh
    {
      OFFSET 0 -1.70687 -2.19456
      CHANNELS 3 Zrotation Xrotation Yrotation
      JOINT rShin
      {
        OFFSET 0 -36.8199 0.73152
        CHANNELS 3 Zrotation Xrotation Yrotation
        JOINT rFoot
        {
          OFFSET 0.73152 -45.1104 -5.12064
          CHANNELS 3 Zrotation Xrotation Yrotation
          End Site
          {
            OFFSET -1.1221 -3.69964 12.103
          }
        }
      }
    }
  }
  JOINT lButtock
  {
    OFFSET 8.77824 4.35084 1.2192
    CHANNELS 3 Zrotation Xrotation Yrotation
    JOINT lThigh
    {
      OFFSET 0 -1.70687 -2.19456
      CHANNELS 3 Zrotation Xrotation Yrotation
      JOINT lShin
      {
        OFFSET 0 -36.8199 0.73152
        CHANNELS 3 Zrotation Xrotation Yrotation
        JOINT lFoot
        {
          OFFSET -0.73152 -45.1104 -5.12064
          CHANNELS 3 Zrotation Xrotation Yrotation
          End Site
          {
            OFFSET 1.1221 -3.69964 12.103
          }
        }
      }
    }
  }
}
MOTION
Frames:	7
Frame Time:	0.03333
0.0 0.0 0.0 0.0 0.0 0.0 0.0 0.0 0.0 0.0 0.0 0.0 0.0 0.0 0.0 0.0 0.0 0.0 0.0 0.0 0.0 0.0 0.0 0.0 0.0 0.0 0.0 0.0 0.0 0.0 0.0 0.0 0.0 0.0 0.0 0.0 0.0 0.0 0.0 0.0 0.0 0.0 0.0 0.0 0.0 0.0 0.0 0.0 0.0 0.0 0.0 0.0 0.0 0.0 0.0 0.0 0.0 0.0 0.0 0.0 0.0 0.0 0.0 0.0 0.0 0.0 0.0 0.0 0.0 0.0 0.0 0.0 0.0 0.0 0.0 0.0 0.0 0.0 0.0 0.0 0.0 0.0 0.0 0.0 0.0 0.0 0.0 0.0 0.0 0.0 0.0 0.0 0.0 0.0 0.0 0.0 0.0 0.0 0.0 0.0 0.0 0.0 0.0 0.0 0.0 0.0 0.0 0.0 0.0 0.0 0.0 0.0 0.0 0.0 0.0 0.0 0.0 0.0 0.0 0.0 0.0 0.0 0.0 0.0 0.0 0.0 0.0 0.0 0.0 0.0 0.0 0.0
-0.2792 55.7633 -0.4015 -164.416535 -14.101603 174.429507 12.427633 10.71249 105.257893 -4.851792 -1.300821 -86.331237 4.571847 14.938623 40.593482 -18.176734 -18.500064 -41.028589 0.000447 0.0 0.003109 0.000196 -0.0 -0.001533 -155.459828 -3.227716 161.777836 -52.7654 21.655143 17.353572 78.826923 16.461036 -81.908193 -174.044206 42.004755 147.46862 -7.758327 7.439266 1.681491 -150.405001 -57.55277 114.305397 2.326015 -3.867963 -1.257925 11.120595 1.404923 -0.409009 -8.304737 20.65291 5.559966 2.903747 1.195084 0.149683 -0.014411 -1.323244 -0.415283 9.250744 13.600177 1.791203 -26.563952 -38.860472 -25.607002 45.548387 82.863841 -7.588079 158.41768 -29.366498 -166.793294 60.675764 -30.002751 32.694569 -4.754034 10.438214 67.17787 -160.249219 -32.210395 -140.666398 176.340727 -13.961322 -89.714693 -28.160456 -67.192887 -21.996205 155.376733 -24.639772 -122.179616 78.782545 57.446387 -61.8506 141.109741 35.600965 -129.173414 9.095177 29.400133 -7.66267 145.097786 -1.521888 178.65177 -12.246785 39.015743 4.564133 157.329397 57.246003 150.51361 6.423101 -17.22181 8.373642 -0.0 -0.000656 -0.000879 -10.020199 10.535833 -69.306765 -46.809055 11.882387 -60.010185 176.202228 71.003119 -72.986532 179.999042 75.751672 0.000988 -140.208541 -1.430847 91.078969 85.581163 -13.386569 -8.398082 -9.765067 -28.058228 -95.107709
-0.4131 55.489900000000006 -0.5824 -164.293814 -14.226127 174.342049 12.580707 11.839718 78.470168 -4.703459 -3.524816 -59.626602 10.20528 23.659326 98.891238 -33.300209 11.625874 -93.9519 -1.8e-05 0.0 -0.001253 -0.005695 0.0 -0.000629 -158.514725 -30.702106 167.038545 141.935072 22.961991 -174.867844 178.068243 -7.636707 92.447024 159.511381 -31.511514 141.098694 116.31027 -50.01127 56.954398 -142.220195 17.594279 97.042783 -108.426797 34.161365 91.743621 -82.111989 54.27412 59.833511 -111.804449 56.306409 102.278972 -42.184876 58.402972 36.454072 -145.122187 1.973757 -179.74625 11.868594 33.476558 -5.206261 26.978246 80.122619 10.130845 -160.724109 52.403549 -148.451202 0.048373 0.29245 -0.064976 100.2598 2.684511 -166.324869 -0.420715 5.68872 66.167765 -157.149166 -37.474718 -138.418585 0.491786 0.484651 -0.076651 136.79629 -39.281858 -118.309953 27.423045 30.638951 -20.098267 -166.478051 -45.888119 -101.03897 152.825529 14.793034 -138.514607 163.424808 -5.431015 -143.048992 0.021816 -1.725974 0.542941 154.250423 11.213433 -170.337702 80.938804 -51.227352 79.359868 8.21537 -23.800671 11.153829 0.000954 -0.002153 0.000477 -11.004615 11.495904 2.002698 -2.512556 47.051512 -131.568092 27.750432 48.556624 89.834833 0.0 -0.000846 0.001529 77.433651 -46.565558 -20.63362 -80.766762 7.559955 116.64319 -101.95392 9.454251 11.037506
-0.5264 55.2163 -0.7341 -164.089382 -14.385388 174.311241 17.113825 12.797882 -54.268015 3.926544 -5.143293 72.564871 10.32832 23.76975 100.118697 -33.149097 12.665045 -95.154916 0.004101 0.0 0.00173 -0.00158 -0.0 0.002335 -155.417312 -2.951341 161.718809 131.5123 -34.310777 162.654862 112.581053 -9.810577 108.979233 -174.983523 39.720531 147.809508 -164.697956 -2.372358 89.584336 120.908114 -56.178839 84.833786 -160.014526 -33.011689 122.699529 -157.877114 -11.840978 119.46528 -125.644884 49.840618 115.274898 -42.233479 58.375992 36.495458 -145.119703 0.184885 -179.18778 -66.988128 87.684599 80.239949 -152.348128 37.910921 -147.688368 -162.698182 55.764736 -146.864847 153.049732 10.023271 -158.667673 -131.683715 -10.273489 -170.546918 -67.346864 -38.142111 -65.051338 126.706051 75.233938 -108.014404 -4.417425 -4.400403 0.512474 -8.945693 -15.673189 10.43482 27.421156 30.639367 -20.09876 -68.937688 -57.638494 -24.179446 36.036604 51.723223 -29.83171 88.571495 63.980646 -80.471911 0.015679 -1.323036 0.416609 -7.020043 29.715989 -4.676385 -31.487102 83.083676 -6.674124 -2.710105 3.617401 -0.075034 179.99239 75.74967 0.007852 110.265886 79.74687 -20.514535 -47.180921 6.958049 -135.545493 84.118095 31.607364 169.3612 -0.000642 -9.8e-05 0.0 77.268594 -48.915827 169.154284 87.81062 -7.350357 165.79492 18.278287 83.963266 64.287355
-0.6259 54.9064 -0.8785 -163.916825 -14.640323 174.298814 15.555288 13.734714 -3.137087 0.275752 -7.109715 21.532245 9.73617 21.040535 84.514127 -32.271529 3.597065 -82.1584 -0.001854 0.0 -0.000198 0.004057 0.0 0.003867 -29.826413 58.184889 32.231675 -164.804503 -36.287974 119.629198 -110.883645 5.890591 170.611142 18.388172 -34.883002 11.491349 90.437073 -50.939579 38.665383 -89.829706 38.323951 50.624253 -2.685087 4.227075 1.583791 -84.135744 47.598655 65.436156 68.984592 -80.153775 40.578682 -114.290656 59.152029 104.463108 0.005038 1.771378 0.556533 6.528752 31.036285 4.967404 40.00968 85.640641 -0.923249 -161.429946 54.02318 -148.300729 155.613874 -4.236365 -161.991196 -135.540968 -5.222183 176.487062 7.932233 -2.670535 -31.497169 2.97236 20.62517 -1.593346 178.927291 -16.453868 -89.420761 67.522829 3.178615 -17.03949 -2.326352 -3.867536 1.260434 -55.313295 -48.692033 -11.727755 82.84025 61.111201 -74.532421 161.047238 1.268215 -142.43064 13.61582 -53.680484 25.679618 -13.98949 -31.625623 6.289878 -16.908533 59.245079 -12.678582 150.599558 19.189265 144.765828 -0.000547 -0.000727 0.000703 -9.773333 10.948264 -71.050206 -41.004427 6.881484 12.499667 29.298332 -8.982806 35.450539 -179.998155 75.748995 -0.001904 -138.997448 -1.889034 2.630239 100.353343 78.126198 41.686527 -77.09711 -19.482168 -175.344943
-0.764 54.6358 -1.0808 -163.823211 -14.916643 174.30974 18.029044 10.862631 -102.094306 4.564745 -1.4598 120.147051 -0.261455 13.707874 14.517873 -3.042688 -24.622734 -13.243959 -0.002598 -0.0 0.004274 0.003082 0.0 0.003683 3.269027 -26.755803 -5.241773 -31.353929 -62.824415 -87.878945 127.390389 53.430829 -81.180205 -33.940944 69.414531 21.132679 174.055506 -22.871555 88.063373 -167.984077 -4.366468 95.876643 -173.600469 -52.69289 119.892707 -163.72532 -26.637245 118.13915 -12.843798 28.996985 9.149664 -34.311249 55.157351 29.027865 0.001904 0.063725 0.019895 6.904635 29.711879 4.677985 -26.563886 -38.861218 -25.605295 55.78056 84.639732 -17.162845 9.651866 34.836161 -11.199245 113.202695 -10.343757 -133.741841 -30.80842 -0.100912 61.364473 -172.64792 -0.15231 -147.456313 171.603558 -9.286221 -89.949674 121.925491 13.321598 -57.728663 123.869975 22.788642 -104.455845 -0.292383 12.616377 5.417308 -7.903965 -24.807662 3.0123 42.156683 58.536801 -36.103782 145.118872 0.185704 179.18612 -11.911755 29.602198 5.640651 23.395156 -36.34768 22.495608 10.030857 -26.775783 12.157683 -0.003823 -3.8e-05 -0.003823 -10.736652 11.854709 -0.0 10.62955 42.438402 93.459497 -55.077819 -13.190624 -134.445147 0.000412 -3.8e-05 -0.000529 79.86994 -47.103292 -20.782503 -94.608829 2.92433 -107.456253 92.662458 32.606976 171.104351
-0.8151999999999999 54.39619999999999 -1.2118 -163.690468 -15.188463 174.32384 13.773029 9.922 125.104845 -3.788807 0.281248 -106.745005 -11.581524 25.388996 -86.961333 37.103698 12.617166 86.515995 -0.003351 0.0 -0.003976 0.00324 0.0 0.003396 0.282948 -1.731491 -0.379707 61.723359 18.523838 -4.67251 173.348892 -0.924427 92.535216 162.079627 -26.545297 142.839416 -7.758836 7.438906 1.682478 -133.725086 -35.022423 113.388232 -90.224971 41.071606 75.796751 -167.086485 -14.986431 114.861204 23.905058 -61.333596 1.401324 -5.052849 21.015744 4.443281 0.004691 1.772019 0.558768 -155.559475 -1.179319 171.993108 0.099222 0.258263 0.091001 5.917856 10.367715 2.858884 159.219866 -48.028408 -170.415816 64.811638 -30.456385 52.392457 -78.990479 39.11604 103.031981 174.956523 37.559212 -146.966823 85.830027 38.631156 -47.954939 -66.35415 -45.904721 -27.703099 -37.216294 -57.917617 0.641403 -98.205358 -64.523372 -40.473579 175.767626 -50.334339 -144.098196 -80.880321 -77.693873 -52.570883 145.119879 0.185186 179.187016 148.103589 -43.127134 170.573739 146.186465 15.3316 142.712184 -3.624777 3.56704 0.929542 0.001059 -0.00119 -0.0 -9.665386 11.357764 -73.114092 -35.565427 10.241328 79.01859 -32.620485 -3.583256 -28.864392 0.0 -0.001253 0.001595 79.619421 -49.475969 169.001737 88.062067 -5.282922 179.81111 13.90829 -20.19528 91.808729
